<svg xmlns="http://www.w3.org/2000/svg" xmlns:xlink="http://www.w3.org/1999/xlink" preserveAspectRatio="xMidYMid" width="44" height="70" viewBox="0 0 44 70">
  <defs>
    <style>

      .cls-2 {
        fill: #ffffff;
        filter: url(#color-overlay-1);
      }
    </style>

    <filter id="color-overlay-1" filterUnits="userSpaceOnUse">
      <feFlood flood-color="#2e2e2e" flood-opacity="1"/>
      <feComposite operator="in" in2="SourceGraphic"/>
      <feBlend mode="normal" in2="SourceGraphic" result="colorOverlay"/>
    </filter>
  </defs>
  <path d="M27.994,35.789 C27.994,35.789 43.951,62.645 43.951,62.645 C44.807,65.842 42.910,69.128 39.713,69.985 C39.713,69.985 4.430,69.985 4.430,69.985 C1.233,69.128 -0.665,65.842 0.192,62.645 C0.192,62.645 14.013,35.743 14.013,35.743 C14.013,35.743 14.043,20.001 14.043,20.001 C14.043,20.001 13.079,20.001 13.079,20.001 C11.424,20.001 10.082,18.659 10.082,17.004 C10.082,15.349 11.424,14.008 13.079,14.008 C13.079,14.008 29.066,14.008 29.066,14.008 C30.721,14.008 32.062,15.349 32.062,17.004 C32.062,18.659 30.721,20.001 29.066,20.001 C29.066,20.001 27.964,20.001 27.964,20.001 C27.964,20.001 27.992,35.740 27.992,35.740 C27.992,35.740 27.994,35.789 27.994,35.789 ZM29.066,18.003 C29.617,18.003 30.065,17.556 30.065,17.004 C30.065,16.453 29.617,16.005 29.066,16.005 C29.066,16.005 26.069,16.005 26.069,16.005 C26.069,16.005 16.076,16.005 16.076,16.005 C16.076,16.005 13.079,16.005 13.079,16.005 C12.527,16.005 12.080,16.453 12.080,17.004 C12.080,17.556 12.527,18.003 13.079,18.003 C13.079,18.003 16.076,18.003 16.076,18.003 C16.076,18.003 16.030,35.818 16.030,35.818 C16.030,35.818 2.137,63.049 2.137,63.049 C1.566,65.181 2.831,67.372 4.962,67.943 C4.962,67.943 39.176,67.980 39.176,67.980 C41.307,67.409 42.572,65.218 42.001,63.087 C42.001,63.087 26.123,35.752 26.123,35.752 C26.123,35.752 26.069,18.003 26.069,18.003 C26.069,18.003 29.066,18.003 29.066,18.003 ZM39.919,63.647 C40.204,64.713 39.572,65.808 38.506,66.093 C38.506,66.093 5.512,66.093 5.512,66.093 C4.446,65.808 3.814,64.713 4.099,63.647 C4.099,63.647 14.034,44.066 14.034,44.066 C14.034,44.066 17.031,40.066 21.156,44.066 C25.406,48.316 28.735,44.066 28.735,44.066 C28.735,44.066 39.919,63.647 39.919,63.647 ZM27.031,11.008 C27.031,12.112 26.136,13.008 25.031,13.008 C23.927,13.008 23.031,12.112 23.031,11.008 C23.031,9.903 23.927,9.008 25.031,9.008 C26.136,9.008 27.031,9.903 27.031,11.008 ZM25.031,6.008 C23.374,6.008 22.031,4.664 22.031,3.008 C22.031,1.351 23.374,0.008 25.031,0.008 C26.688,0.008 28.031,1.351 28.031,3.008 C28.031,4.664 26.688,6.008 25.031,6.008 ZM17.031,11.008 C15.927,11.008 15.031,10.112 15.031,9.008 C15.031,7.903 15.927,7.008 17.031,7.008 C18.136,7.008 19.031,7.903 19.031,9.008 C19.031,10.112 18.136,11.008 17.031,11.008 Z" id="path-1" class="cls-2" fill-rule="evenodd"/>
</svg>
