<svg xmlns="http://www.w3.org/2000/svg" xmlns:xlink="http://www.w3.org/1999/xlink" preserveAspectRatio="xMidYMid" width="50" height="51" viewBox="0 0 50 51">
  <defs>
    <style>

      .cls-2 {
        fill: #ffffff;
        filter: url(#color-overlay-1);
      }
    </style>

    <filter id="color-overlay-1" filterUnits="userSpaceOnUse">
      <feFlood flood-color="#2e2e2e" flood-opacity="1"/>
      <feComposite operator="in" in2="SourceGraphic"/>
      <feBlend mode="normal" in2="SourceGraphic" result="colorOverlay"/>
    </filter>
  </defs>
  <path d="M45.990,30.145 C45.990,30.145 43.343,30.145 43.343,30.145 C42.912,31.703 42.294,33.179 41.505,34.549 C41.505,34.549 43.953,36.997 43.953,36.997 C45.519,38.563 45.519,41.102 43.953,42.668 C43.953,42.668 42.535,44.086 42.535,44.086 C40.969,45.652 38.430,45.652 36.864,44.086 C36.864,44.086 34.401,41.623 34.401,41.623 C33.035,42.401 31.563,43.006 30.012,43.429 C30.012,43.429 30.012,45.997 30.012,45.997 C30.012,48.212 28.217,50.008 26.002,50.008 C26.002,50.008 23.997,50.008 23.997,50.008 C21.783,50.008 19.987,48.212 19.987,45.997 C19.987,45.997 19.987,43.429 19.987,43.429 C18.437,43.006 16.965,42.401 15.598,41.623 C15.598,41.623 13.136,44.086 13.136,44.086 C11.570,45.652 9.031,45.652 7.465,44.086 C7.465,44.086 6.047,42.668 6.047,42.668 C4.481,41.102 4.481,38.563 6.047,36.997 C6.047,36.997 8.494,34.549 8.494,34.549 C7.706,33.179 7.088,31.703 6.657,30.145 C6.657,30.145 4.010,30.145 4.010,30.145 C1.795,30.145 -0.000,28.350 -0.000,26.135 C-0.000,26.135 -0.000,24.130 -0.000,24.130 C-0.000,21.916 1.795,20.120 4.010,20.120 C4.010,20.120 6.625,20.120 6.625,20.120 C7.040,18.577 7.633,17.109 8.400,15.747 C8.400,15.747 6.047,13.394 6.047,13.394 C4.481,11.828 4.481,9.289 6.047,7.723 C6.047,7.723 7.465,6.305 7.465,6.305 C9.031,4.739 11.570,4.739 13.136,6.305 C13.136,6.305 15.442,8.612 15.442,8.612 C16.853,7.791 18.377,7.150 19.987,6.712 C19.987,6.712 19.987,4.017 19.987,4.017 C19.987,1.803 21.783,0.008 23.997,0.008 C23.997,0.008 26.002,0.008 26.002,0.008 C28.217,0.008 30.012,1.803 30.012,4.017 C30.012,4.017 30.012,6.712 30.012,6.712 C31.623,7.150 33.147,7.791 34.557,8.612 C34.557,8.612 36.864,6.305 36.864,6.305 C38.430,4.739 40.969,4.739 42.535,6.305 C42.535,6.305 43.953,7.723 43.953,7.723 C45.519,9.289 45.519,11.828 43.953,13.394 C43.953,13.394 41.600,15.747 41.600,15.747 C42.367,17.109 42.960,18.577 43.375,20.120 C43.375,20.120 45.990,20.120 45.990,20.120 C48.205,20.120 50.000,21.916 50.000,24.130 C50.000,24.130 50.000,26.135 50.000,26.135 C50.000,28.350 48.205,30.145 45.990,30.145 ZM25.000,14.168 C18.909,14.168 13.972,19.105 13.972,25.195 C13.972,31.286 18.909,36.223 25.000,36.223 C31.090,36.223 36.027,31.286 36.027,25.195 C36.027,19.105 31.090,14.168 25.000,14.168 ZM25.000,30.083 C22.232,30.083 19.987,27.838 19.987,25.070 C19.987,22.302 22.232,20.058 25.000,20.058 C27.768,20.058 30.012,22.302 30.012,25.070 C30.012,27.838 27.768,30.083 25.000,30.083 Z" id="path-1" class="cls-2" fill-rule="evenodd"/>
</svg>
